<svg width="25" height="24" viewBox="0 0 25 24" fill="none" xmlns="http://www.w3.org/2000/svg">
<g clip-path="url(#clip0_2226_6299)">
<path d="M9 12.25H5C4.30964 12.25 3.75 11.6904 3.75 11V5C3.75 4.30964 4.30964 3.75 5 3.75H9C9.69036 3.75 10.25 4.30964 10.25 5V11C10.25 11.6904 9.69036 12.25 9 12.25ZM9 20.25H5C4.30964 20.25 3.75 19.6904 3.75 19V17C3.75 16.3096 4.30964 15.75 5 15.75H9C9.69036 15.75 10.25 16.3096 10.25 17V19C10.25 19.6904 9.69036 20.25 9 20.25ZM19 20.25H15C14.3096 20.25 13.75 19.6904 13.75 19V13C13.75 12.3096 14.3096 11.75 15 11.75H19C19.6904 11.75 20.25 12.3096 20.25 13V19C20.25 19.6904 19.6904 20.25 19 20.25ZM13.75 7V5C13.75 4.30964 14.3096 3.75 15 3.75H19C19.6904 3.75 20.25 4.30964 20.25 5V7C20.25 7.69036 19.6904 8.25 19 8.25H15C14.3096 8.25 13.75 7.69036 13.75 7Z" stroke="#E4E3E7" stroke-width="1.5"/>
</g>
<defs>
<clipPath id="clip0_2226_6299">
<rect width="24" height="24" fill="white" transform="translate(0.5)"/>
</clipPath>
</defs>
</svg>
