<svg width="24" height="25" viewBox="0 0 24 25" fill="none" xmlns="http://www.w3.org/2000/svg">
<path d="M9.09385 11.5582C6.91219 11.4915 5.17969 9.8665 5.17969 7.8665C5.17969 5.82484 6.99469 4.1665 9.24969 4.1665C11.4955 4.1665 13.3197 5.82484 13.3197 7.8665C13.3105 9.8665 11.578 11.4915 9.39635 11.5582C9.30469 11.5498 9.19469 11.5498 9.09385 11.5582Z" stroke="#E4E3E7" stroke-width="1.5" stroke-linecap="round" stroke-linejoin="round"/>
<path d="M16.043 5.8335C17.8213 5.8335 19.2513 7.14183 19.2513 8.75016C19.2513 10.3252 17.8763 11.6085 16.1622 11.6668C16.0888 11.6585 16.0063 11.6585 15.9238 11.6668" stroke="#E4E3E7" stroke-width="1.5" stroke-linecap="round" stroke-linejoin="round"/>
<path d="M4.81316 19.5252C7.334 21.0585 11.4682 21.0585 13.989 19.5252C16.2073 18.1752 16.2073 15.9752 13.989 14.6335C11.4773 13.1085 7.34316 13.1085 4.81316 14.6335C2.59483 15.9835 2.59483 18.1835 4.81316 19.5252Z" stroke="#E4E3E7" stroke-width="1.5" stroke-linecap="round" stroke-linejoin="round"/>
<path d="M17.8115 19.1665C18.4715 19.0415 19.0949 18.7998 19.6082 18.4415C21.0382 17.4665 21.0382 15.8582 19.6082 14.8832C19.104 14.5332 18.4899 14.2998 17.839 14.1665" stroke="#E4E3E7" stroke-width="1.5" stroke-linecap="round" stroke-linejoin="round"/>
</svg>
