<svg width="24" height="24" viewBox="0 0 24 24" fill="none" xmlns="http://www.w3.org/2000/svg">
<g clip-path="url(#clip0_2226_6353)">
<path d="M4.5 12.25C3.80964 12.25 3.25 11.6904 3.25 11V5C3.25 4.30964 3.80964 3.75 4.5 3.75H8.5C9.19036 3.75 9.75 4.30964 9.75 5V11C9.75 11.6904 9.19036 12.25 8.5 12.25H4.5ZM4.5 20.25C3.80964 20.25 3.25 19.6904 3.25 19V17C3.25 16.3096 3.80964 15.75 4.5 15.75H8.5C9.19036 15.75 9.75 16.3096 9.75 17V19C9.75 19.6904 9.19036 20.25 8.5 20.25H4.5ZM14.5 20.25C13.8096 20.25 13.25 19.6904 13.25 19V13C13.25 12.3096 13.8096 11.75 14.5 11.75H18.5C19.1904 11.75 19.75 12.3096 19.75 13V19C19.75 19.6904 19.1904 20.25 18.5 20.25H14.5ZM13.25 5C13.25 4.30964 13.8096 3.75 14.5 3.75H18.5C19.1904 3.75 19.75 4.30964 19.75 5V7C19.75 7.69036 19.1904 8.25 18.5 8.25H14.5C13.8096 8.25 13.25 7.69036 13.25 7V5Z" stroke="#5A1EFF" stroke-width="1.5"/>
</g>
<defs>
<clipPath id="clip0_2226_6353">
<rect width="24" height="24" fill="white"/>
</clipPath>
</defs>
</svg>
