<svg width="24" height="25" viewBox="0 0 24 25" fill="none" xmlns="http://www.w3.org/2000/svg">
<path d="M18.5069 1.5H9.4401C8.44003 1.5 7.62674 2.31694 7.62674 3.3215V12.429H5.81337C4.8133 12.429 4 13.2459 4 14.2505V22.4472C4 22.6888 4.09553 22.9204 4.26556 23.0912C4.4356 23.262 4.66622 23.358 4.90668 23.358H19.4136C19.6541 23.358 19.8847 23.262 20.0548 23.0912C20.2248 22.9204 20.3203 22.6888 20.3203 22.4472V3.3215C20.3203 2.31694 19.507 1.5 18.5069 1.5ZM5.81337 14.2505H11.2535V21.5365H5.81337V14.2505ZM18.5069 21.5365H13.0668V14.2505C13.0668 13.2459 12.2535 12.429 11.2535 12.429H9.4401V3.3215H18.5069V21.5365Z" fill="#5A1EFF"/>
<path d="M11.3513 8.7876H13.1647V10.6091H11.3513V8.7876ZM14.9781 8.7876H16.7915V10.6091H14.9781V8.7876ZM14.9781 12.4588H16.7915V14.2521H14.9781V12.4588ZM14.9781 16.0736H16.7915V17.8951H14.9781V16.0736ZM7.72461 16.0745H9.53798V17.896H7.72461V16.0745Z" fill="#5A1EFF"/>
<path d="M13.1645 5.14282H11.3512V6.96432H13.1645V5.14282Z" fill="#5A1EFF"/>
<path d="M16.7913 5.14282H14.9779V6.96432H16.7913V5.14282Z" fill="#5A1EFF"/>
</svg>
