<svg width="18" height="24" viewBox="0 0 18 24" fill="none" xmlns="http://www.w3.org/2000/svg">
<path d="M15.5069 1H6.4401C5.44003 1 4.62674 1.81694 4.62674 2.8215V11.929H2.81337C1.8133 11.929 1 12.7459 1 13.7505V21.9472C1 22.1888 1.09553 22.4204 1.26556 22.5912C1.4356 22.762 1.66622 22.858 1.90668 22.858H16.4136C16.6541 22.858 16.8847 22.762 17.0548 22.5912C17.2248 22.4204 17.3203 22.1888 17.3203 21.9472V2.8215C17.3203 1.81694 16.507 1 15.5069 1ZM2.81337 13.7505H8.25347V21.0365H2.81337V13.7505ZM15.5069 21.0365H10.0668V13.7505C10.0668 12.7459 9.25355 11.929 8.25347 11.929H6.4401V2.8215H15.5069V21.0365Z" fill="#4C4C67" stroke="white" stroke-width="0.5" stroke-linecap="round"/>
<path d="M8.3511 8.28785H10.1645V10.1093H8.3511V8.28785ZM11.9778 8.28785H13.7912V10.1093H11.9778V8.28785ZM11.9778 11.9591H13.7912V13.7523H11.9778V11.9591ZM11.9778 15.5738H13.7912V17.3953H11.9778V15.5738ZM4.72437 15.5748H6.53773V17.3963H4.72437V15.5748Z" fill="#4C4C67"/>
<path d="M10.1643 4.64307H8.35091V6.46457H10.1643V4.64307Z" fill="#4C4C67"/>
<path d="M13.791 4.64307H11.9776V6.46457H13.791V4.64307Z" fill="#4C4C67"/>
</svg>
