<svg width="29" height="29" viewBox="0 0 29 29" fill="none" xmlns="http://www.w3.org/2000/svg">
<g clip-path="url(#clip0_68_638)">
<path d="M5.95154 14.7069C5.26118 14.7069 4.70154 14.1472 4.70154 13.4569V5.95166C4.70154 5.2613 5.26118 4.70166 5.95154 4.70166H11.1557C11.8461 4.70166 12.4057 5.2613 12.4057 5.95166V13.4569C12.4057 14.1472 11.8461 14.7069 11.1557 14.7069H5.95154ZM5.95154 23.911C5.26118 23.911 4.70154 23.3514 4.70154 22.661V19.7579C4.70154 19.0676 5.26118 18.5079 5.95154 18.5079H11.1557C11.8461 18.5079 12.4057 19.0676 12.4057 19.7579V22.661C12.4057 23.3514 11.8461 23.911 11.1557 23.911H5.95154ZM17.4567 23.911C16.7664 23.911 16.2067 23.3514 16.2067 22.661V15.1558C16.2067 14.4655 16.7664 13.9058 17.4567 13.9058H22.6609C23.3513 13.9058 23.9109 14.4655 23.9109 15.1558V22.661C23.9109 23.3514 23.3513 23.911 22.6609 23.911H17.4567ZM16.2067 5.95166C16.2067 5.2613 16.7664 4.70166 17.4567 4.70166H22.6609C23.3513 4.70166 23.9109 5.2613 23.9109 5.95166V8.85478C23.9109 9.54514 23.3513 10.1048 22.6609 10.1048H17.4567C16.7664 10.1048 16.2067 9.54514 16.2067 8.85478V5.95166Z" stroke="#4C4C67" stroke-width="1.5"/>
</g>
<defs>
<clipPath id="clip0_68_638">
<rect width="27.6125" height="27.6125" fill="white" transform="translate(0.5 0.5)"/>
</clipPath>
</defs>
</svg>
