<svg width="22" height="20" viewBox="0 0 22 20" fill="none" xmlns="http://www.w3.org/2000/svg">
<path d="M8.09385 9.05817C5.91219 8.9915 4.17969 7.3665 4.17969 5.3665C4.17969 3.32484 5.99469 1.6665 8.24969 1.6665C10.4955 1.6665 12.3197 3.32484 12.3197 5.3665C12.3105 7.3665 10.578 8.9915 8.39635 9.05817C8.30469 9.04984 8.19469 9.04984 8.09385 9.05817Z" stroke="#4C4C67" stroke-width="1.5" stroke-linecap="round" stroke-linejoin="round"/>
<path d="M15.043 3.3335C16.8213 3.3335 18.2513 4.64183 18.2513 6.25016C18.2513 7.82516 16.8763 9.1085 15.1622 9.16683C15.0888 9.1585 15.0063 9.1585 14.9238 9.16683" stroke="#4C4C67" stroke-width="1.5" stroke-linecap="round" stroke-linejoin="round"/>
<path d="M3.81316 17.0252C6.334 18.5585 10.4682 18.5585 12.989 17.0252C15.2073 15.6752 15.2073 13.4752 12.989 12.1335C10.4773 10.6085 6.34316 10.6085 3.81316 12.1335C1.59483 13.4835 1.59483 15.6835 3.81316 17.0252Z" stroke="#4C4C67" stroke-width="1.5" stroke-linecap="round" stroke-linejoin="round"/>
<path d="M16.8115 16.6665C17.4715 16.5415 18.0949 16.2998 18.6082 15.9415C20.0382 14.9665 20.0382 13.3582 18.6082 12.3832C18.104 12.0332 17.4899 11.7998 16.839 11.6665" stroke="#4C4C67" stroke-width="1.5" stroke-linecap="round" stroke-linejoin="round"/>
</svg>
