<svg width="20" height="20" viewBox="0 0 20 20" fill="none" xmlns="http://www.w3.org/2000/svg">
<path fill-rule="evenodd" clip-rule="evenodd" d="M12.0787 1.09988L4.41452 5.96749H1.60076C1.08572 5.96749 0.667358 6.38584 0.667358 6.90089V13.0995C0.667358 13.6145 1.08572 14.0329 1.60076 14.0329H4.41452L12.0787 18.9005C12.2165 18.9713 12.3702 19.0055 12.525 18.9998C12.6798 18.994 12.8305 18.9486 12.9627 18.8679C13.0949 18.7871 13.2041 18.6738 13.2798 18.5386C13.3556 18.4035 13.3953 18.2512 13.3952 18.0963V1.90407C13.3953 1.74916 13.3556 1.59684 13.2798 1.46172C13.2041 1.3266 13.0949 1.21323 12.9627 1.13248C12.8305 1.05173 12.6798 1.00632 12.525 1.00061C12.3702 0.994905 12.2165 1.02909 12.0787 1.09988ZM18.1499 7.44033H16.3825V12.56H18.149C18.8032 12.56 19.3327 12.0296 19.3327 11.3754V8.62583C19.3327 7.97073 18.8041 7.44033 18.1499 7.44033Z" stroke="#4C4C67" stroke-width="1.5" stroke-linecap="round" stroke-linejoin="round"/>
</svg>
